<?xml version="1.0" encoding="UTF-8" standalone="no"?>
<svg
   xmlns:dc="http://purl.org/dc/elements/1.1/"
   xmlns:cc="http://creativecommons.org/ns#"
   xmlns:rdf="http://www.w3.org/1999/02/22-rdf-syntax-ns#"
   xmlns:svg="http://www.w3.org/2000/svg"
   xmlns="http://www.w3.org/2000/svg"
   xmlns:sodipodi="http://sodipodi.sourceforge.net/DTD/sodipodi-0.dtd"
   xmlns:inkscape="http://www.inkscape.org/namespaces/inkscape"
   id="svg2"
   height="288"
   width="288"
   version="1.1"
   inkscape:version="0.92.2 5c3e80d, 2017-08-06"
   sodipodi:docname="latex-project-logo_288x288.svg">
  <defs
     id="defs79" />
  <sodipodi:namedview
     pagecolor="#ffffff"
     bordercolor="#666666"
     borderopacity="1"
     objecttolerance="10"
     gridtolerance="10"
     guidetolerance="10"
     inkscape:pageopacity="0"
     inkscape:pageshadow="2"
     inkscape:window-width="2560"
     inkscape:window-height="1320"
     id="namedview77"
     showgrid="false"
     inkscape:zoom="1.8457649"
     inkscape:cx="280.26478"
     inkscape:cy="13.603732"
     inkscape:window-x="0"
     inkscape:window-y="46"
     inkscape:window-maximized="1"
     inkscape:current-layer="svg2"
     fit-margin-top="0"
     fit-margin-left="0"
     fit-margin-right="0"
     fit-margin-bottom="0" />
  <metadata
     id="metadata61">
    <rdf:RDF>
      <cc:Work
         rdf:about="">
        <dc:format>image/svg+xml</dc:format>
        <dc:type
           rdf:resource="http://purl.org/dc/dcmitype/StillImage" />
        <dc:title></dc:title>
      </cc:Work>
    </rdf:RDF>
  </metadata>
  <g
     id="text3038-7"
     style="font-style:normal;font-weight:normal;font-size:23.53051949px;line-height:125%;font-family:Sans;letter-spacing:0px;word-spacing:0px;fill:#000000"
     transform="matrix(4.9680311,0,0,4.9680311,-44.156248,-96.201071)"
     inkscape:export-xdpi="96.272499"
     inkscape:export-ydpi="96.272499" />
  <g
     id="g3049"
     style="fill:#000000"
     transform="matrix(21.363823,0,0,21.363823,737.02653,283.99466)"
     inkscape:export-xdpi="96.272499"
     inkscape:export-ydpi="96.272499" />
  <g
     id="text3038-7-9"
     style="font-style:normal;font-weight:normal;font-size:23.53051949px;line-height:125%;font-family:Sans;letter-spacing:0px;word-spacing:0px;fill:#000000"
     transform="matrix(4.9680311,0,0,4.9680311,-44.156248,-96.201071)"
     inkscape:export-xdpi="96.272499"
     inkscape:export-ydpi="96.272499" />
  <path
     id="rect3070-7"
     style="fill:#000000;stroke-width:0.27631468"
     d="m 210.74353,270.89284 h 77.2565 v 1.77589 h -77.2565 z M 0,270.88984 h 44.73951 v 1.77589 H 0 Z m 35.31371,-15.84662 c 0,-0.84118 0.1315,-1.61668 0.3943,-2.32638 0.26944,-0.70973 0.64075,-1.32419 1.11391,-1.84332 0.47974,-0.51916 1.05477,-0.9266 1.72513,-1.22235 0.6703,-0.30229 1.40966,-0.46329 2.21793,-0.48302 0.57832,-0.0132 1.10076,0.0723 1.5674,0.25629 0.46657,0.17745 0.86417,0.44361 1.19275,0.79847 0.32859,0.35488 0.58488,0.78861 0.76889,1.30119 0.19058,0.51261 0.29901,1.0942 0.3253,1.74475 0.0137,0.41403 0.003,0.77218 -0.0296,1.07447 -0.0263,0.30231 -0.0559,0.57175 -0.0887,0.80833 h -7.30449 v 0.11829 c 0,0.0329 0.003,0.069 0.0101,0.10843 0.0263,0.79519 0.16101,1.45236 0.40416,1.97153 0.24315,0.51917 0.54546,0.93319 0.9069,1.24206 0.368,0.3023 0.77217,0.51587 1.21249,0.64074 0.4403,0.11829 0.87074,0.17743 1.29133,0.17743 0.2563,1e-5 0.52573,-0.0132 0.80833,-0.0394 0.28258,-0.0329 0.55529,-0.0756 0.81818,-0.12814 0.26943,-0.0591 0.51586,-0.12487 0.73931,-0.19715 0.22999,-0.0723 0.41401,-0.14786 0.55203,-0.22673 l 0.36472,0.8379 c -0.19058,0.17086 -0.4403,0.32529 -0.74917,0.4633 -0.30231,0.138 -0.63419,0.25628 -0.99561,0.35486 -0.36146,0.092 -0.73933,0.16101 -1.13362,0.20701 -0.39431,0.0526 -0.77876,0.0789 -1.15334,0.0789 -0.79518,0 -1.50164,-0.13473 -2.11937,-0.40417 -0.61117,-0.27601 -1.12705,-0.66045 -1.54763,-1.15333 -0.42059,-0.49945 -0.7426,-1.10076 -0.96605,-1.80392 -0.21687,-0.70317 -0.3253,-1.48846 -0.3253,-2.3559 m 7.29461,-1.05475 c 0.0198,-0.33516 0.0229,-0.67032 0.0101,-1.00548 -0.007,-0.34172 -0.046,-0.66374 -0.11833,-0.96605 -0.0723,-0.30886 -0.18403,-0.58815 -0.33516,-0.83789 -0.14459,-0.25628 -0.34175,-0.46329 -0.59146,-0.62102 -0.17087,-0.11171 -0.36473,-0.19386 -0.58159,-0.24644 -0.21688,-0.0591 -0.46331,-0.0887 -0.73931,-0.0887 -0.36804,2e-5 -0.72618,0.069 -1.07449,0.20701 -0.34173,0.13801 -0.65059,0.35818 -0.92661,0.66046 -0.26944,0.3023 -0.49616,0.69333 -0.68017,1.17305 -0.18401,0.47317 -0.3023,1.04819 -0.35488,1.72512 h 5.39213 m -20.8981,5.6986 1.47857,-0.20702 v -13.34714 l -1.68558,-0.35487 v -0.8576 l 3.11502,-0.41403 0.4633,0.22672 -0.0198,4.35708 -0.0296,1.70536 c 0.28914,-0.23657 0.6013,-0.44687 0.93646,-0.63088 0.34172,-0.18401 0.68346,-0.33844 1.02519,-0.4633 0.34173,-0.13143 0.6736,-0.23001 0.99561,-0.29573 0.32859,-0.0722 0.62431,-0.10842 0.88718,-0.10843 0.67031,1e-5 1.21905,0.10186 1.64619,0.30558 0.42716,0.20372 0.76231,0.51917 1.00548,0.94633 0.24971,0.42059 0.42057,0.96276 0.51259,1.62655 0.092,0.66375 0.13466,1.45236 0.12822,2.36578 v 4.93872 l 1.47857,0.207 v 0.83789 h -5.02738 v -0.83789 l 1.65607,-0.207 v -4.1008 c -2e-5,-0.76231 -0.0198,-1.43258 -0.0591,-2.01092 -0.0328,-0.57831 -0.12822,-1.06132 -0.28587,-1.44906 -0.15116,-0.3943 -0.38117,-0.69003 -0.69002,-0.88718 -0.30888,-0.19714 -0.73604,-0.29572 -1.28149,-0.29573 -0.21688,10e-6 -0.44688,0.0132 -0.69004,0.0395 -0.24314,0.0263 -0.4896,0.0723 -0.73931,0.13799 -0.24315,0.0591 -0.4896,0.14131 -0.73932,0.24644 -0.24315,0.10515 -0.47974,0.23988 -0.70974,0.40416 v 7.91564 l 1.44906,0.207 v 0.83789 h -4.82038 v -0.83789 m -10.72104,-9e-5 2.41506,-0.29573 v -13.08076 l -3.5783204,0.19716 -0.69003,1.68558 -0.89704,0.0197 0.24644,-2.99669 H 20.22604 l -0.0198,3.02635 -0.80831,0.0887 -0.51259,-1.83357 -3.55856,-0.18729 v 13.08098 l 2.57279,0.29572 v 0.8379 h -6.9101 v -0.8379 m 171.65916,-9.69663 c 0,0 8.0873,-11.80628 8.0873,-11.80628 1.2397,-1.889 3.2468,-3.778 8.5006,-3.83703 v -1.77095 h -14.0495 v 1.77095 c 2.3612,0.059 3.6599,1.35772 3.6599,2.71544 0,0.59031 -0.118,0.70838 -0.5313,1.35772 0,0 -6.7296,9.91727 -6.7296,9.91727 0,0 -7.556,-11.33403 -7.556,-11.33403 -0.118,-0.17709 -0.4132,-0.64934 -0.4132,-0.88547 0,-0.70837 1.2987,-1.7119 3.778,-1.77093 v -1.77095 c -2.007,0.17709 -6.3163,0.17709 -8.5595,0.17709 -1.83,0 -5.4899,-0.059 -7.6741,-0.17709 v 1.77095 h 1.1216 c 3.2467,0 4.3683,0.41321 5.4899,2.0661 0,0 10.8027,16.35169 10.8027,16.35169 0,0 -9.6221,14.22655 -9.6221,14.22655 -0.8264,1.18063 -2.5974,3.89607 -8.5005,3.89607 v 1.82998 h 14.0494 v -1.82998 c -2.7154,-0.059 -3.7189,-1.65286 -3.7189,-2.71544 0,-0.53128 0.1771,-0.7674 0.5903,-1.41675 0,0 8.3235,-12.33755 8.3235,-12.33755 0,0 9.3269,14.04945 9.3269,14.04945 0.118,0.23612 0.2951,0.47226 0.2951,0.64935 0,0.70838 -1.2986,1.71192 -3.837,1.77094 v 1.82998 c 2.0661,-0.1771 6.3754,-0.1771 8.5596,-0.1771 2.4793,0 5.1948,0.059 7.674,0.1771 v -1.82998 h -1.1216 c -3.0696,0 -4.3092,-0.29514 -5.5489,-2.12512 0,0 -12.3966,-18.77198 -12.3966,-18.77198 z m -17.7684,20.83808 h -1.4758 c -1.4758,9.03179 -2.8335,13.34108 -12.9279,13.34108 h -7.7921 c -2.7745,0 -2.8926,-0.41321 -2.8926,-2.36125 v -15.70235 h 5.2538 c 5.7261,0 6.3754,1.889 6.3754,6.90667 h 1.4758 v -15.58428 h -1.4758 c 0,5.01767 -0.6493,6.84764 -6.3754,6.84764 h -5.2538 v -14.10848 c 0,-1.94804 0.1181,-2.36126 2.8926,-2.36126 h 7.556 c 9.0318,0 10.5666,3.24673 11.5111,11.45209 h 1.4757 c 0,0 -1.6528,-13.22303 -1.6528,-13.22303 h -33.0576 v 1.77094 h 1.3578 c 4.5454,0 4.6634,0.64935 4.6634,2.77447 v 30.81438 c 0,2.12513 -0.118,2.77447 -4.6634,2.77447 h -1.3578 V 286 h 33.884 c 0,0 2.4794,-15.17105 2.4794,-15.17105 z M 133.23933,232.9308 H 97.289228 c 0,0 -1.062598,13.22303 -1.062598,13.22303 h 1.416798 c 0.8264,-9.50405 1.7119,-11.45208 10.625602,-11.45208 1.0626,0 2.5974,0 3.1878,0.11806 1.2395,0.23613 1.2395,0.88548 1.2395,2.2432 v 30.99148 c 0,2.00705 0,2.83349 -6.1982,2.83349 h -2.3613 v 1.82998 c 2.4203,-0.1771 8.3825,-0.1771 11.098,-0.1771 2.7153,0 8.7957,0 11.2159,0.1771 v -1.82998 h -2.3612 c -6.1984,0 -6.1984,-0.82644 -6.1984,-2.83349 V 237.063 c 0,-1.18063 0,-2.00707 1.0626,-2.2432 0.6494,-0.11806 2.2432,-0.11806 3.3648,-0.11806 8.8547,0 9.7401,1.94803 10.5666,11.45208 h 1.4759 c 0,0 -1.1217,-13.22303 -1.1217,-13.22303 z m -47.2841,-0.41322 c -0.2362,-0.70837 -0.3542,-0.9445 -1.1216,-0.9445 -0.7674,0 -0.9445,0.23613 -1.1806,0.9445 0,0 -9.50407,24.0848 -9.50407,24.0848 -0.41322,1.00354 -1.12159,2.83351 -4.78154,2.83351 v 1.47579 h 9.14986 v -1.47579 c -1.82997,0 -2.95156,-0.82644 -2.95156,-2.00707 0,-0.29516 0.059,-0.41321 0.17709,-0.82644 0,0 2.00708,-5.07669 2.00708,-5.07669 h 11.68814 c 0,0 2.3612,6.0212 2.3612,6.0212 0.1182,0.23612 0.2362,0.53128 0.2362,0.70837 0,1.18063 -2.2432,1.18063 -3.3648,1.18063 v 1.47579 h 11.6292 v -1.47579 h -0.826402 c -2.774498,0 -3.069598,-0.41321 -3.482898,-1.59384 0,0 -10.0353,-25.32447 -10.0353,-25.32447 z m -2.3613,4.19124 c 0,0 5.2538,13.34108 5.2538,13.34108 H 78.34019 c 0,0 5.25374,-13.34108 5.25374,-13.34108 z m 3.3648,20.83807 h -1.4758 c -0.5903,6.02119 -1.4167,13.34109 -11.80621,13.34109 h -4.78154 c -2.77448,0 -2.89254,-0.41322 -2.89254,-2.36126 v -31.34566 c 0,-2.00706 0,-2.8335 5.54895,-2.8335 h 1.94803 v -1.77095 c -2.12513,0.17709 -7.43796,0.17709 -9.85823,0.17709 -2.30223,0 -6.90669,0 -8.91375,-0.17709 v 1.77095 h 1.35773 c 4.5454,0 4.66348,0.64934 4.66348,2.77447 v 30.99148 c 0,2.12512 -0.11806,2.77447 -4.66348,2.77447 h -1.35773 v 1.82997 h 30.63729 c 0,0 1.5938,-15.17106 1.5938,-15.17106 z m 187.5419,0.87773 v -3.59794 c 0.01,-1.19605 0.01,-2.39873 0.01,-3.60785 h -1.5082 v -0.73931 c 0.2891,-0.0722 0.529,-0.12813 0.7196,-0.16758 0.1971,-0.046 0.3581,-0.0952 0.4829,-0.14786 0.1314,-0.0591 0.24,-0.13142 0.3253,-0.21686 0.086,-0.0855 0.1644,-0.21029 0.2366,-0.37459 0.046,-0.11172 0.1019,-0.27601 0.1676,-0.49289 0.073,-0.21685 0.138,-0.43701 0.1972,-0.66045 0.066,-0.23001 0.1216,-0.44357 0.1675,-0.64074 0.047,-0.20372 0.076,-0.34829 0.089,-0.43374 h 0.976 v 2.63196 h 3.3122 v 1.24205 h -3.3122 v 4.96822 c -10e-5,0.76233 0.01,1.38332 0.029,1.86309 0.02,0.47317 0.07,0.84447 0.148,1.11391 0.079,0.26944 0.1938,0.45344 0.3449,0.55201 0.1512,0.092 0.3615,0.13801 0.6309,0.13801 0.1644,0 0.3451,-0.0165 0.5422,-0.0493 0.2037,-0.0329 0.3975,-0.0722 0.5816,-0.11829 0.1906,-0.046 0.3647,-0.0952 0.5224,-0.14785 0.1577,-0.0591 0.2761,-0.11501 0.355,-0.16759 l 0.3055,0.86747 c -0.1512,0.16428 -0.3516,0.30887 -0.6013,0.43372 -0.2498,0.12487 -0.5225,0.23002 -0.8182,0.31545 -0.2892,0.0855 -0.5816,0.14785 -0.8773,0.18729 -0.2892,0.046 -0.5454,0.069 -0.7689,0.069 -0.7163,0 -1.2716,-0.22015 -1.666,-0.66045 -0.3943,-0.44031 -0.5914,-1.15991 -0.5914,-2.15877 m -11.8601,-2.72089 c -0.01,-0.9069 0.128,-1.72513 0.4042,-2.4546 0.276,-0.72945 0.6539,-1.35378 1.1335,-1.87297 0.4863,-0.51915 1.0549,-0.92332 1.7055,-1.21248 0.6571,-0.28915 1.3635,-0.45015 2.1193,-0.48303 0.276,-0.007 0.5553,2e-5 0.8379,0.0197 0.2891,0.0132 0.5586,0.0428 0.8083,0.0887 0.2563,0.0395 0.4896,0.092 0.7,0.15771 0.2102,0.0658 0.381,0.14132 0.5125,0.22673 v 2.36578 h -0.9365 l -0.5028,-1.24206 c -0.1051,-0.0855 -0.2267,-0.15771 -0.3646,-0.21686 -0.138,-0.0591 -0.2794,-0.10841 -0.4239,-0.14785 -0.1445,-0.0394 -0.2892,-0.0657 -0.4337,-0.0789 -0.1446,-0.0197 -0.2761,-0.0296 -0.3943,-0.0296 -0.4404,2e-5 -0.8609,0.0821 -1.2618,0.24644 -0.4008,0.16431 -0.7558,0.41403 -1.0646,0.74917 -0.3089,0.3286 -0.5554,0.7459 -0.7394,1.25191 -0.1839,0.49946 -0.2793,1.08763 -0.2858,1.76453 -0.01,0.89376 0.099,1.65937 0.3155,2.29687 0.2168,0.63745 0.4994,1.1599 0.8477,1.56739 0.3483,0.40088 0.736,0.69661 1.1632,0.88717 0.4271,0.18402 0.8477,0.27602 1.2617,0.27602 0.2564,0 0.5225,-0.0164 0.7985,-0.0493 0.276,-0.0329 0.5422,-0.0756 0.7985,-0.12814 0.2562,-0.0526 0.4928,-0.11501 0.7098,-0.1873 0.2168,-0.0789 0.3942,-0.15772 0.5323,-0.23658 l 0.335,0.87732 c -0.1905,0.17086 -0.427,0.32202 -0.7097,0.45344 -0.2826,0.13145 -0.5947,0.24316 -0.9365,0.33515 -0.3351,0.092 -0.69,0.16101 -1.0646,0.20702 -0.368,0.0526 -0.7393,0.0789 -1.1139,0.0789 -0.7622,0 -1.4358,-0.13801 -2.0208,-0.41402 -0.5849,-0.27601 -1.081,-0.66045 -1.4884,-1.15333 -0.4009,-0.49289 -0.7065,-1.07448 -0.9168,-1.74475 -0.2103,-0.67689 -0.3187,-1.40967 -0.3253,-2.19832 m -11.3251,-0.17702 c 0,-0.84118 0.1315,-1.61667 0.3943,-2.32639 0.2695,-0.70973 0.6407,-1.32418 1.1139,-1.84331 0.4797,-0.51915 1.0548,-0.9266 1.7251,-1.22234 0.6704,-0.30229 1.4096,-0.4633 2.218,-0.48302 0.5782,-0.0132 1.1007,0.0723 1.5674,0.25628 0.4665,0.17744 0.8642,0.4436 1.1927,0.79847 0.3286,0.35489 0.5849,0.78861 0.7689,1.3012 0.1906,0.5126 0.2991,1.09419 0.3253,1.74475 0.014,0.41401 0,0.77218 -0.029,1.07447 -0.026,0.3023 -0.055,0.57175 -0.089,0.80833 h -7.3044 c 0,0.0395 0,0.0789 0,0.11828 0,0.0329 0,0.069 0.01,0.10844 0.026,0.79518 0.1609,1.45236 0.404,1.97152 0.2432,0.51917 0.5455,0.93319 0.907,1.24205 0.3679,0.30231 0.7721,0.51589 1.2124,0.64074 0.4403,0.11829 0.8708,0.17745 1.2914,0.17745 0.2563,0 0.5257,-0.0132 0.8083,-0.0394 0.2826,-0.0329 0.5553,-0.0756 0.8182,-0.12816 0.2694,-0.0591 0.5159,-0.12486 0.7393,-0.19715 0.23,-0.0722 0.414,-0.14785 0.5521,-0.22672 l 0.3647,0.83789 c -0.1906,0.17087 -0.4403,0.3253 -0.7493,0.4633 -0.3022,0.13801 -0.6341,0.25629 -0.9956,0.35487 -0.3614,0.092 -0.7392,0.16102 -1.1335,0.20701 -0.3943,0.0526 -0.7788,0.0789 -1.1534,0.0789 -0.7952,0 -1.5017,-0.13472 -2.1194,-0.40416 -0.6112,-0.27602 -1.127,-0.66045 -1.5476,-1.15333 -0.4206,-0.49945 -0.7426,-1.10076 -0.966,-1.80391 -0.2169,-0.70318 -0.3253,-1.48847 -0.3253,-2.3559 m 7.2946,-1.05476 c 0.02,-0.33516 0.023,-0.67031 0.01,-1.00548 -0.01,-0.34171 -0.046,-0.66373 -0.1183,-0.96604 -0.073,-0.30887 -0.184,-0.58817 -0.3352,-0.83789 -0.1446,-0.25629 -0.3417,-0.4633 -0.5914,-0.62103 -0.1708,-0.11171 -0.3648,-0.19386 -0.5816,-0.24643 -0.2169,-0.0591 -0.4633,-0.0887 -0.7393,-0.0887 -0.3681,10e-6 -0.7262,0.069 -1.0745,0.20701 -0.3417,0.13801 -0.6506,0.35815 -0.9266,0.66045 -0.2695,0.3023 -0.4962,0.69333 -0.6802,1.17304 -0.184,0.47317 -0.3023,1.0482 -0.3549,1.72513 h 5.3922 m -11.4949,-7.304 c -0.1577,2e-5 -0.3121,-0.0262 -0.4633,-0.0789 -0.1511,-0.0591 -0.2858,-0.13799 -0.4042,-0.23657 -0.1117,-0.10515 -0.2037,-0.23329 -0.2759,-0.38445 -0.066,-0.15114 -0.099,-0.32201 -0.099,-0.5126 0,-0.20372 0.042,-0.3943 0.1281,-0.57173 0.092,-0.17743 0.2071,-0.32857 0.3451,-0.45345 0.138,-0.1314 0.2924,-0.23328 0.4633,-0.30558 0.1775,-0.0722 0.3549,-0.10842 0.5323,-0.10843 0.4338,1e-5 0.7492,0.1216 0.9463,0.36473 0.2037,0.2366 0.3056,0.52247 0.3056,0.85761 0,0.21687 -0.042,0.41403 -0.1281,0.59145 -0.086,0.17746 -0.1971,0.32862 -0.3351,0.45345 -0.138,0.1183 -0.2957,0.2136 -0.4732,0.28587 -0.1774,0.0658 -0.3581,0.0986 -0.5422,0.0986 m -0.5026,4.72181 -1.3703,-0.72945 v -0.59147 l 2.77,-0.78861 0.4534,0.19716 v 11.18837 c 0,0.76889 -0.086,1.45566 -0.2563,2.06021 -0.1643,0.61118 -0.4042,1.12704 -0.7197,1.54763 -0.3088,0.42715 -0.6834,0.75246 -1.1237,0.9759 -0.4403,0.22344 -0.9332,0.33515 -1.4785,0.33516 -0.066,-10e-6 -0.1545,-0.003 -0.2662,-0.0101 -0.1118,-0.007 -0.2235,-0.0164 -0.3352,-0.0296 -0.1051,-0.0137 -0.2037,-0.0295 -0.2957,-0.0492 -0.092,-0.0198 -0.1511,-0.0393 -0.1775,-0.0591 v -1.36036 c 0.053,0.0198 0.1283,0.0361 0.2269,0.0493 0.099,0.0137 0.2003,0.0231 0.3055,0.0295 0.1118,0.0137 0.2169,0.0198 0.3155,0.0198 0.099,0.007 0.1773,0.0101 0.2365,0.0101 0.3155,0 0.5816,-0.0625 0.7984,-0.18729 0.2235,-0.11833 0.401,-0.32202 0.5324,-0.61116 0.138,-0.28259 0.2366,-0.65719 0.2957,-1.12377 0.059,-0.4666 0.089,-1.0449 0.089,-1.73486 v -9.13792 m -13.8288,3.37993 c 0.014,-0.8806 0.1643,-1.66595 0.4535,-2.35589 0.2957,-0.69661 0.6834,-1.28477 1.1632,-1.76453 0.4797,-0.47971 1.0317,-0.84773 1.6561,-1.10404 0.6308,-0.25629 1.288,-0.38772 1.9714,-0.39431 0.8346,-0.007 1.5609,0.13802 2.1786,0.43374 0.6177,0.29574 1.1271,0.70318 1.5278,1.22234 0.4075,0.5126 0.7098,1.11721 0.907,1.8138 0.1971,0.69661 0.2923,1.44247 0.2858,2.23771 -0.01,0.87404 -0.1478,1.67255 -0.4239,2.39543 -0.2694,0.72288 -0.6374,1.3439 -1.1041,1.86308 -0.4599,0.51259 -1.0021,0.91348 -1.6263,1.20263 -0.6178,0.28258 -1.2815,0.42387 -1.9913,0.42387 -0.907,0 -1.6791,-0.16429 -2.3165,-0.49288 -0.6375,-0.32858 -1.1566,-0.76889 -1.5575,-1.32092 -0.401,-0.55202 -0.6933,-1.18618 -0.8774,-1.90248 -0.1774,-0.72288 -0.2596,-1.47529 -0.2464,-2.25733 m 5.0865,4.86965 c 0.5586,0.0132 1.0285,-0.0821 1.4097,-0.28586 0.3877,-0.20372 0.6999,-0.50274 0.9364,-0.89705 0.2432,-0.40087 0.4173,-0.89375 0.5225,-1.47858 0.1118,-0.59144 0.1676,-1.26833 0.1676,-2.0307 0,-0.66373 -0.06,-1.28147 -0.1774,-1.85319 -0.1118,-0.57831 -0.2925,-1.08104 -0.5422,-1.50823 -0.2432,-0.42715 -0.5553,-0.76231 -0.9364,-1.00548 -0.3746,-0.24971 -0.8215,-0.38115 -1.3407,-0.39431 -0.5586,-0.007 -1.035,0.092 -1.4293,0.29574 -0.3877,0.19716 -0.7064,0.4896 -0.9562,0.87732 -0.2497,0.38773 -0.4337,0.86089 -0.552,1.41954 -0.1117,0.5586 -0.1675,1.19278 -0.1675,1.90248 0,0.63747 0.062,1.25192 0.1872,1.84332 0.1249,0.59145 0.3122,1.11719 0.5619,1.57728 0.2497,0.45344 0.5652,0.82146 0.9463,1.10405 0.3877,0.27601 0.8445,0.4206 1.3702,0.43373 m -14.1055,0.0294 1.5969,-0.207 v -8.02408 l -1.3998,-0.76889 v -0.61116 l 2.6025,-0.77876 0.4633,0.19715 v 1.51812 c 0.1248,-0.18401 0.3122,-0.37786 0.5619,-0.58161 0.2563,-0.20371 0.5422,-0.38772 0.8576,-0.55201 0.3154,-0.17086 0.644,-0.30887 0.9857,-0.41402 0.3418,-0.11171 0.6638,-0.16758 0.9661,-0.16759 0.2168,1e-5 0.4107,0.007 0.5817,0.0197 0.1773,0.007 0.3021,0.023 0.3745,0.0492 v 2.02081 c -0.1052,-0.0394 -0.2136,-0.0788 -0.3253,-0.11829 -0.1118,-0.046 -0.2366,-0.0821 -0.3746,-0.10843 -0.1314,-0.0329 -0.2826,-0.0591 -0.4535,-0.0789 -0.1709,-0.0197 -0.368,-0.0296 -0.5914,-0.0296 -0.5323,1e-5 -0.9792,0.069 -1.3406,0.207 -0.3615,0.13145 -0.6933,0.29246 -0.9956,0.48304 v 7.70861 l 2.8094,0.23658 v 0.83789 h -6.3187 v -0.83789 m -13.0411,-3e-5 1.863,-0.29573 v -12.93313 l -1.6264,-0.16758 v -1.07447 h 2.5926 c 0.1577,2e-5 0.368,-0.007 0.6309,-0.0197 0.2628,-0.0132 0.552,-0.0296 0.8675,-0.0492 0.322,-0.0197 0.6538,-0.0361 0.9956,-0.0492 0.3483,-0.0132 0.6867,-0.0197 1.0153,-0.0197 0.7557,1e-5 1.4491,0.0723 2.08,0.21686 0.6309,0.14459 1.1731,0.39432 1.6265,0.74917 0.4535,0.34832 0.805,0.81492 1.0548,1.39979 0.2562,0.58489 0.3845,1.32093 0.3845,2.20805 0,0.53232 -0.076,1.02849 -0.2268,1.48846 -0.1446,0.46004 -0.3482,0.87734 -0.6112,1.25191 -0.2628,0.3746 -0.575,0.70647 -0.9365,0.99562 -0.3614,0.28917 -0.7523,0.52903 -1.173,0.71961 -0.4206,0.19059 -0.8675,0.33516 -1.3406,0.43372 -0.4666,0.092 -0.9398,0.13145 -1.4195,0.11829 -0.4994,-0.0132 -0.9036,-0.0164 -1.2124,-0.0101 -0.3088,0.007 -0.5684,0.0262 -0.7787,0.0591 v 4.68227 l 2.6319,0.29573 v 0.83789 h -6.4173 v -0.83789 m 3.7854,-6.14123 c 0.3745,0.0526 0.7196,0.0855 1.035,0.0986 0.322,0.007 0.6309,0.0101 0.9266,0.0101 0.3155,1e-5 0.6277,-0.0197 0.9365,-0.0591 0.3154,-0.046 0.6111,-0.12157 0.8872,-0.22672 0.2826,-0.11171 0.5422,-0.25957 0.7787,-0.44358 0.2431,-0.19058 0.4502,-0.43374 0.6211,-0.72946 0.1773,-0.29572 0.3154,-0.64731 0.4139,-1.05476 0.099,-0.41401 0.148,-0.90032 0.148,-1.45895 0,-1.20918 -0.3418,-2.1062 -1.0252,-2.69113 -0.6769,-0.58486 -1.6496,-0.85758 -2.9179,-0.81817 -0.3221,0.0132 -0.631,0.0329 -0.9267,0.0591 -0.2892,0.0198 -0.5816,0.0657 -0.8773,0.138 v 7.17627"
     inkscape:connector-curvature="0"
     inkscape:export-xdpi="96.272499"
     inkscape:export-ydpi="96.272499" />
  <g
     id="layer1"
     transform="matrix(2.4829732,0,0,2.4829732,-473.69808,-1338.5286)"
     inkscape:export-xdpi="96.272499"
     inkscape:export-ydpi="96.272499">
    <g
       id="g3363"
       transform="matrix(0.58826838,0,0,-0.58826838,191.06432,638.60215)">
      <g
         id="g3365"
         transform="translate(-131.809,509.294)">
        <g
           id="g3367">
          <g
             id="g3369">
            <g
               id="g3371">
              <path
                 id="path3373"
                 style="fill:#000000;fill-rule:nonzero"
                 d="m 149.96,-340.67 c 1.8968,-3.4174 3.8698,-6.3595 5.9279,-8.8918 l 0.0249,-0.0249 c 0.007,-0.009 0.0177,-0.0161 0.0249,-0.0249 -0.94806,0.13835 -1.9246,0.23487 -2.939,0.2242 -2.0037,-0.0211 -4.1554,-0.36537 -6.4758,-1.0959 3.9851,-3.3371 7.3783,-5.7768 10.361,-7.6714 -0.0729,0.024 -0.15143,0.0511 -0.2242,0.0747 l 0.2242,-0.12457 c -4.621,1.4463 -9.6061,1.6232 -15.442,-1.1457 4.1905,-2.6223 7.7071,-4.5356 10.81,-5.9777 -0.0908,0.0135 -0.18332,0.0371 -0.274,0.0498 l 0.2242,-0.12451 c -4.8356,0.83273 -9.854,0.36464 -15.318,-3.2379 3.5625,-1.5875 6.6575,-2.7858 9.4148,-3.7112 h 0.0249 l 0.17441,-0.0996 c -4.6111,-0.17927 -9.1809,-1.615 -13.649,-5.8531 3.9032,-0.96823 7.245,-1.6148 10.187,-2.0424 -0.0826,-0.0167 -0.1665,-0.0321 -0.24906,-0.0498 -0.11484,0.002 -0.23434,-0.002 -0.3487,0 l 0.12456,-0.0498 c -3.4373,-0.78055 -6.789,-2.5039 -10.062,-5.8034 2.652,-0.573 5.0383,-1.0181 7.223,-1.345 -2.6896,-1.3001 -5.2443,-3.3148 -7.5717,-6.4011 3.056,-0.23727 5.7634,-0.33865 8.1944,-0.34871 -2.9412,-1.3609 -5.7127,-3.4976 -8.1695,-6.9491 4.3649,-0.21814 8.0134,-0.20873 11.158,-0.0249 -0.0588,-0.0241 -0.11565,-0.0501 -0.17432,-0.0747 -0.19112,-0.0171 -0.38297,-0.0293 -0.57291,-0.0498 l 0.27402,-0.0996 c -3.2694,-1.4354 -6.2954,-3.7615 -8.8918,-7.6962 5.4246,-0.0792 9.7215,0.17686 13.325,0.62265 -0.10976,-0.0298 -0.21441,-0.0683 -0.32383,-0.0996 -0.13908,-0.008 -0.28605,-0.0147 -0.4234,-0.0249 l 0.17433,-0.0498 c -4.2498,-1.266 -8.174,-3.7047 -11.432,-8.6427 4.382,-0.0639 8.0408,0.10194 11.183,0.39853 -0.0682,-0.0372 -0.13136,-0.0867 -0.19926,-0.12459 -3.7543,-2.0944 -6.9817,-5.2401 -9.116,-10.561 3.8538,0.72993 7.0841,1.5002 9.8881,2.3164 -0.0465,-0.0369 -0.10329,-0.0621 -0.14945,-0.0996 l 0.17432,0.0249 c -2.8863,-2.1539 -5.3128,-5.1719 -6.949,-9.6391 2.6533,0.58655 5.0239,1.203 7.1483,1.8183 -1.907,-2.3057 -3.38,-5.1839 -4.2092,-8.9665 2.8812,1.061 5.3803,2.0819 7.5966,3.0885 -0.0268,-0.0314 -0.0481,-0.068 -0.0747,-0.0996 -0.0453,-0.0357 -0.10543,-0.0639 -0.14942,-0.0996 l 0.0747,0.0249 c -2.0331,-2.4363 -3.5844,-5.5001 -4.3587,-9.5643 4.0565,1.622 7.3561,3.1788 10.137,4.6576 -0.0786,-0.076 -0.17511,-0.14738 -0.24907,-0.22412 l 0.0747,0.0249 c -2.4595,-2.6976 -4.2958,-6.1629 -5.0312,-10.934 4.7882,2.1139 8.4776,4.0784 11.507,5.9279 -0.032,-0.0328 -0.068,-0.0668 -0.0996,-0.0996 l 0.19926,0.0996 c -3.4396,-2.9457 -6.0783,-6.8543 -6.9988,-12.827 6.4533,2.8489 10.967,5.4289 14.471,7.8208 -1.5048,-3.0434 -2.2999,-6.5895 -1.9178,-11.034 6.237,4.7851 10.186,8.643 13.126,12.055 -0.005,-0.0492 0.004,-0.10012 0,-0.14946 -0.1783,-2.1625 -0.0435,-4.5072 0.59776,-7.0984 3.6977,6.3528 7.3958,8.9861 11.158,11.158 -4.7054,-3.05 -3.8605,-5.5216 -3.8605,-8.3439 5.5952,5.8925 13.379,12.151 15.766,16.065 -3.191,-4.7923 -4.4652,-9.3434 -5.3052,-13.35 -16.327,-8.6347 -26.291,-10.895 -37.435,-14.346 4.3231,-1.5856 8.9633,-3.1258 7.0487,-5.3301 l -5.106,-5.106 c 3.2647,1.0149 6.5993,2.4781 9.4896,0.49814 -0.28367,-2.6778 -3.6612,-4.0429 -6.5506,-5.604 5.0869,1.8329 6.1844,1.4013 7.5219,0.97135 0.66825,-3.2088 -1.6524,-4.9294 -3.1631,-7.0487 12.813,9.7424 29.522,17.434 41.296,20.648 16.561,5.5771 37.929,11.391 43.737,25.53 l 5.8033,23.313 c 6.8085,7.3686 13.07,14.997 16.04,24.284 18.958,3.6678 34.295,2.3531 50.287,1.9427 -1.4576,0.24292 -48.818,8.2691 -48.818,8.2691 -13.844,18.942 -34.497,6.0592 -41.296,-12.653 -1.716,-4.7228 -11.509,-4.7124 -14.346,0.0249 -11.218,24.152 -45.282,49.693 -74.273,59.104 v 1.6e-4 z"
                 inkscape:connector-curvature="0" />
            </g>
            <g
               id="g3375">
              <path
                 id="path3377"
                 style="fill:#008080;fill-rule:nonzero"
                 d="m 149.63,-339.31 c 1.9102,-3.4413 3.8962,-6.3775 5.9698,-8.9221 -0.94804,0.13829 -1.9248,0.21967 -2.9392,0.20899 -2.0037,-0.0211 -4.1457,-0.35373 -6.4662,-1.0843 4.0493,-3.3909 7.4714,-5.8655 10.49,-7.7726 -4.6633,1.4895 -9.685,1.7016 -15.584,-1.0973 4.3088,-2.6963 7.9255,-4.6449 11.091,-6.1005 -4.9349,0.90956 -10.052,0.4951 -15.637,-3.1874 3.6874,-1.6432 6.8762,-2.8768 9.7059,-3.8145 -4.6448,-0.16235 -9.2423,-1.5969 -13.742,-5.8653 3.9032,-0.96832 7.2473,-1.6103 10.189,-2.0379 -3.6004,-0.72745 -7.1321,-2.4544 -10.555,-5.9045 2.652,-0.57299 5.0392,-1.0054 7.2239,-1.3325 -2.6896,-1.3 -5.2362,-3.3147 -7.5636,-6.4009 3.056,-0.23727 5.7597,-0.34265 8.1906,-0.35269 -2.9413,-1.3609 -5.6946,-3.5113 -8.1514,-6.9627 4.3648,-0.21817 8.0109,-0.19694 11.156,-0.013 -3.4564,-1.413 -6.642,-3.8007 -9.3663,-7.9294 5.4246,-0.0792 9.7208,0.18126 13.324,0.62703 -4.4722,-1.2142 -8.612,-3.6557 -12.018,-8.8176 4.382,-0.0639 8.0396,0.0954 11.182,0.39191 -3.8417,-2.0935 -7.1412,-5.269 -9.3139,-10.686 3.9551,0.74904 7.2698,1.5509 10.124,2.3905 -2.9731,-2.1636 -5.4721,-5.2025 -7.1456,-9.7712 2.6533,0.58652 5.0081,1.2006 7.1325,1.8158 -1.9071,-2.3057 -3.3771,-5.1916 -4.2063,-8.9744 2.8812,1.0611 5.3734,2.0894 7.5897,3.096 -2.1056,-2.4639 -3.7138,-5.5831 -4.5068,-9.7451 4.0565,1.622 7.356,3.1717 10.137,4.6505 -2.5494,-2.7253 -4.4461,-6.2311 -5.1991,-11.117 4.9388,2.1803 8.728,4.2001 11.809,6.1005 -3.5384,-2.9654 -6.2592,-6.9085 -7.1978,-12.998 6.4534,2.849 10.957,5.4329 14.461,7.8249 -1.5048,-3.0435 -2.3024,-6.6071 -1.9203,-11.051 6.237,4.7851 10.188,8.6584 13.128,12.07 -0.19831,-2.2032 -0.0419,-4.5996 0.61402,-7.25 4.4776,7.6927 8.9272,9.9388 13.532,12.506 -7.3345,-3.6926 -6.2472,-6.4725 -6.2472,-9.698 5.5952,5.8924 13.398,12.141 15.785,16.055 -3.191,-4.7923 -4.4899,-9.3306 -5.3297,-13.337 -16.327,-8.6347 -26.268,-10.891 -37.413,-14.343 4.323,-1.5856 8.9557,-3.1385 7.0411,-5.3428 l -5.1077,-5.0946 c 3.2647,1.0148 6.5935,2.4633 9.4838,0.48331 -0.28364,-2.6779 -3.6684,-4.0299 -6.5578,-5.591 5.0868,1.8329 6.1869,1.4096 7.5244,0.9797 0.66825,-3.2088 -1.6506,-4.9348 -3.1612,-7.0541 12.813,9.7423 29.532,17.439 41.306,20.653 16.561,5.5772 37.915,11.374 43.722,25.512 l 5.8262,23.318 c 6.8084,7.3686 13.071,15.01 16.042,24.297 18.958,3.6678 34.288,2.3437 50.28,1.9334 -1.4576,0.24286 -48.83,8.269 -48.83,8.269 -13.844,18.942 -34.481,6.0668 -41.28,-12.645 -1.716,-4.7228 -11.506,-4.7243 -14.343,0.013 -11.218,24.152 -45.286,49.687 -74.277,59.098 v 7e-5 z"
                 inkscape:connector-curvature="0" />
            </g>
            <g
               id="g3379">
              <path
                 id="path3381"
                 style="fill:#ffffff;fill-rule:nonzero"
                 d="m 261.48,-388.74 -0.12456,-0.19925 c -0.4913,-0.91531 -1.3223,-1.5401 -2.4907,-1.9179 -1.1684,-0.37781 -2.6653,-0.49887 -4.4085,-0.42338 l -1.0959,0.0498 0.79703,-0.77217 c 0.40463,-0.38918 0.51767,-0.69986 0.52301,-0.97133 0.006,-0.27155 -0.11111,-0.56476 -0.37358,-0.89664 -0.525,-0.66394 -1.5677,-1.3848 -2.5405,-2.1172 l -0.32382,-0.22413 0.22419,-0.32382 c 0.81153,-1.245 1.1831,-2.2034 1.2702,-2.939 0.0871,-0.73564 -0.0839,-1.2633 -0.42338,-1.7185 -0.67914,-0.91069 -2.1699,-1.5277 -3.5119,-2.2914 l -0.24906,-0.12457 0.0498,-0.29889 c 0.1154,-0.70026 -0.0733,-1.2725 -0.57283,-1.8431 -0.49965,-0.57051 -1.3407,-1.1146 -2.4658,-1.5941 l -0.29887,-0.1245 0.0498,-0.32383 c 0.22444,-1.4994 0.67516,-2.8042 1.619,-3.6364 0.86341,-0.76131 2.1696,-0.96208 3.8357,-0.62262 0.29044,-1.5984 0.70673,-3.052 1.6687,-4.0101 0.97508,-0.97099 2.5188,-1.2582 4.5829,-0.72224 0.46452,-1.1195 1.1433,-1.9172 1.9179,-2.4409 0.8505,-0.57498 1.9619,-0.80691 2.8761,-1.0909 l 0.54167,0.58256 c -0.90741,0.28181 -2.247,0.71739 -2.9695,1.2057 -0.72243,0.48833 -1.3094,1.1582 -1.7186,2.3163 l -0.12451,0.39852 -0.3985,-0.1245 c -2.1225,-0.65228 -3.2994,-0.35858 -4.1097,0.44834 -0.81017,0.80682 -1.2658,2.2654 -1.5442,3.9602 l -0.0747,0.44833 -0.44831,-0.1245 c -1.7494,-0.45646 -2.7822,-0.223 -3.487,0.39852 -0.65841,0.58055 -1.0481,1.6098 -1.2702,2.8892 1.0135,0.46855 1.8823,0.98105 2.4409,1.6189 0.54563,0.62318 0.78188,1.3925 0.74721,2.1918 1.2365,0.6801 2.7279,1.2646 3.5866,2.416 0.44899,0.60199 0.68219,1.3933 0.57283,2.3163 -0.0994,0.83983 -0.51064,1.8101 -1.2204,2.964 0.87123,0.64177 1.817,1.2849 2.4159,2.0424 0.33307,0.42105 0.5835,0.88716 0.5729,1.4196 -0.006,0.29364 -0.2882,0.56113 -0.44832,0.84685 1.5152,-0.0198 2.8957,0.08 4.0349,0.44833 1.2002,0.38808 2.1431,1.0954 2.7646,2.0673 1.7934,-0.009 3.6505,-0.40349 5.5293,-0.6476 1.93,-0.25082 3.894,-0.3181 5.7536,0.49814 l -0.3487,0.77207 c -1.6453,-0.72217 -3.4029,-0.6922 -5.2803,-0.44832 -1.8774,0.24397 -3.834,0.68681 -5.8034,0.67253 h -0.24907 z"
                 inkscape:connector-curvature="0" />
            </g>
            <g
               id="g3383">
              <path
                 id="path3385"
                 style="fill:#ffffff;fill-rule:nonzero;stroke:#ffffff;stroke-width:0.83587998;stroke-linecap:butt;stroke-linejoin:miter;stroke-miterlimit:4;stroke-dasharray:none"
                 stroke-miterlimit="4"
                 d="m 268.45,-388.43 c 0,-1.9546 -1.5845,-3.5391 -3.5391,-3.5391 -1.9545,0 -3.539,1.5845 -3.539,3.5391 0,1.9545 1.5845,3.5391 3.539,3.5391 1.9546,0 3.5391,-1.5845 3.5391,-3.5391 z"
                 inkscape:connector-curvature="0" />
            </g>
            <g
               id="g3387">
              <path
                 id="path3389"
                 style="fill:#ffffff;fill-rule:nonzero"
                 d="m 279.02,-385.11 c -3.1773,-4.1333 -3.9762,-3.0658 -5.9105,-3.7587 l -0.32373,-0.12449 0.0498,-0.34868 c 0.74474,-4.1516 3.2052,-5.4707 5.1254,-6.9798 l 0.1072,0.33579 0.51114,0.0974 c -1.925,1.5127 -4.0314,2.794 -4.7973,6.3224 1.4086,0.33323 2.7528,-0.0929 5.7535,3.8108 l -0.51552,0.64527 z"
                 inkscape:connector-curvature="0" />
            </g>
            <g
               id="g3391">
              <path
                 id="path3393"
                 style="fill:#ffffff;fill-rule:nonzero"
                 d="m 156.68,-356.87 c 6.0038,-3.7227 15.885,-7.5616 22.231,-11.572 3.4911,-2.2229 6.6268,-4.4378 9.0662,-6.3512 2.4394,-1.9135 4.2432,-3.8904 4.9067,-4.5331 0.66353,-0.64271 1.1139,-0.33905 0.67246,0.49814 -0.44139,0.83712 -2.6143,2.7725 -5.081,4.7074 -2.4666,1.9349 -5.6042,4.1401 -9.116,6.3762 -7.0236,4.4721 -15.267,8.4708 -22.679,10.875 z"
                 inkscape:connector-curvature="0" />
            </g>
            <g
               id="g3395">
              <path
                 id="path3397"
                 style="fill:#ffffff;fill-rule:nonzero"
                 d="m 155.6,-348.23 c 2.5168,-0.58121 6.2314,-2.7278 10.362,-5.0244 4.1307,-2.2966 8.6327,-5.1227 12.752,-7.8706 4.1196,-2.7479 7.2959,-5.1529 9.835,-7.0903 2.4112,-2.0634 3.6017,-3.3995 4.0631,-3.3955 0.0633,-0.0127 0.12562,-0.0137 0.2242,0 0.0986,0.0137 0.26494,0.0897 0.3487,0.24907 0.0837,0.15924 0.0513,0.29308 0.0249,0.37357 -0.0265,0.0805 -0.0406,0.12321 -0.0747,0.17439 -0.13623,0.20459 -0.34416,0.39619 -0.6476,0.67244 -0.60693,0.5525 -1.6097,1.365 -2.8892,2.3413 -2.5591,1.9526 -6.2778,4.6154 -10.411,7.3725 -4.1334,2.7571 -8.6672,5.6076 -12.827,7.9204 -1.4787,0.54794 -8.7305,4.383 -10.761,4.2772 h -1e-4 z"
                 inkscape:connector-curvature="0" />
            </g>
            <g
               id="g3399">
              <path
                 id="path3401"
                 style="fill:#ffffff;fill-rule:nonzero"
                 d="m 152.16,-364.08 c 7.7058,-3.1453 18.668,-6.8398 25.985,-11.439 3.9315,-2.4965 7.3558,-4.9835 9.913,-7.0238 1.2786,-1.0201 2.3465,-1.9371 3.1383,-2.665 0.79176,-0.72801 1.2383,-1.3888 1.4944,-1.5692 0.53592,-0.37753 0.94616,-0.12672 0.6974,0.47329 -0.18785,0.45301 -0.80771,0.97268 -1.619,1.7186 -0.81129,0.74585 -1.8972,1.66 -3.1881,2.69 -2.5817,2.0598 -6.0286,4.5845 -9.9877,7.0986 -7.9181,5.028 -17.384,9.4486 -26.433,10.717 z"
                 inkscape:connector-curvature="0" />
            </g>
            <g
               id="g3403">
              <path
                 id="path3405"
                 style="fill:#ffffff;fill-rule:nonzero"
                 d="m 146.23,-371.07 c 6.0055,-0.004 18.411,-5.501 23.64,-8.2559 8.4783,-4.5216 16.188,-10.334 20.449,-14.396 0.47246,-0.45047 1.1627,-0.0529 0.62271,0.57282 -3.9578,4.5861 -12.132,9.9907 -20.673,14.546 -8.5411,4.5551 -17.385,7.5403 -24.039,7.5336 z"
                 inkscape:connector-curvature="0" />
            </g>
            <g
               id="g3407">
              <path
                 id="path3409"
                 style="fill:#ffffff;fill-rule:nonzero"
                 d="m 142.76,-378.98 c 9.0285,-1.3211 19.851,-4.9654 27.736,-8.9142 4.4003,-2.2342 8.324,-4.6272 11.333,-6.7498 3.0087,-2.1226 5.2302,-4.5124 5.7784,-5.1308 0.54821,-0.6184 1.2012,-0.64416 0.69741,0.44832 -0.50382,1.0925 -2.9543,3.2293 -6.0026,5.3799 -3.0483,2.1506 -6.9976,4.548 -11.432,6.7997 -8.8694,4.5033 -18.97,8.0461 -28.11,8.167 z"
                 inkscape:connector-curvature="0" />
            </g>
            <g
               id="g3411">
              <path
                 id="path3413"
                 style="fill:#ffffff;fill-rule:nonzero"
                 d="m 145.74,-385.7 c -2.2428,0.19567 -4.2617,-0.26422 -6.3186,-0.52134 8.0222,0.75177 19.24,-2.9322 26.718,-6.378 8.8087,-4.1296 16.123,-9.7992 19.627,-13.4 0.54852,-0.56374 0.93611,0.15461 0.6476,0.52307 -3.2626,4.1653 -11.032,9.4797 -19.926,13.649 -6.6701,3.127 -14.019,5.5399 -20.748,6.1271 z"
                 inkscape:connector-curvature="0" />
            </g>
            <g
               id="g3415">
              <path
                 id="path3417"
                 style="fill:#ffffff;fill-rule:nonzero"
                 d="m 140.04,-392.93 c 7.8945,-0.58519 18.464,-2.4755 25.868,-5.8742 7.4463,-3.4828 13.097,-7.9987 15.94,-10.561 0.43748,-0.39421 1.2112,-0.11495 0.59778,0.59778 -2.5947,3.0148 -8.6278,7.1848 -16.165,10.71 -7.5368,3.5251 -16.692,5.7829 -26.241,5.127 z"
                 inkscape:connector-curvature="0" />
            </g>
            <g
               id="g3419">
              <path
                 id="path3421"
                 style="fill:#ffffff;fill-rule:nonzero"
                 d="m 147.13,-399.5 c -1.6656,0.0564 -2.4469,-0.25529 -4.0538,-0.4288 5.3581,-0.23616 13.873,-1.6612 18.575,-3.2574 6.1018,-2.117 11.119,-5.3058 13.973,-7.796 0.55105,-0.48085 0.96185,0.16426 0.59777,0.57291 -2.6728,2.9994 -8.105,5.8719 -14.297,8.0201 -4.6437,1.6111 -9.7981,2.7202 -14.795,2.8892 z"
                 inkscape:connector-curvature="0" />
            </g>
            <g
               id="g3423">
              <path
                 id="path3425"
                 style="fill:#ffffff;fill-rule:nonzero"
                 d="m 146.9,-407.27 c 11.454,-0.7729 18.38,-2.791 23.689,-7.5468 0.39781,-0.35636 1.0258,0.13414 0.59778,0.59777 -5.4482,5.9027 -16.175,7.5475 -24.287,6.949 z"
                 inkscape:connector-curvature="0" />
            </g>
            <g
               id="g3427">
              <path
                 id="path3429"
                 style="fill:#ffffff;fill-rule:nonzero"
                 d="m 155.72,-414.15 c -3.4722,0.27927 -6.3776,-0.4795 -9.542,-1.5332 9.2605,1.476 13.111,0.76824 20.127,-2.5266 0.79983,-0.37556 0.75288,0.50929 0.39853,0.72235 -3.7271,2.2403 -7.5119,3.0583 -10.984,3.3375 z"
                 inkscape:connector-curvature="0" />
            </g>
            <g
               id="g3431">
              <path
                 id="path3433"
                 style="fill:#ffffff;fill-rule:nonzero"
                 d="m 155.39,-420.6 c -3.2829,-0.2911 -6.0705,-1.4184 -8.3688,-3.2877 9.1706,3.5347 11.705,2.8314 18.719,0.84302 0.92241,-0.2615 0.63579,0.62702 0.27395,0.77217 -4.1998,1.6838 -7.3409,1.9636 -10.624,1.6726 z"
                 inkscape:connector-curvature="0" />
            </g>
            <g
               id="g3435">
              <path
                 id="path3437"
                 style="fill:#ffffff;fill-rule:nonzero"
                 d="m 173.56,-426.28 c -4.8928,0.52905 -10.405,-0.0643 -15.243,-0.94647 -4.8377,-0.88215 -8.9984,-2.6745 -11.347,-4.5848 8.0435,3.3971 9.5094,3.3898 11.497,3.7629 4.7661,0.86908 9.4905,1.208 15.044,0.94647 0.50357,-0.0238 0.47783,0.77558 0.0498,0.82189 z"
                 inkscape:connector-curvature="0" />
            </g>
            <g
               id="g3439">
              <path
                 id="path3441"
                 style="fill:#ffffff;fill-rule:nonzero"
                 d="m 176.4,-430.24 c -5.3024,0.2003 -10.779,-1.1119 -15.517,-2.4658 -4.7376,-1.354 -8.2541,-3.2016 -10.573,-5.0877 4.6921,2.257 9.0584,3.7848 10.797,4.2907 4.6714,1.3351 9.3839,2.4909 15.343,2.416 0.46291,-0.006 0.76212,0.81613 -0.0498,0.84684 z"
                 inkscape:connector-curvature="0" />
            </g>
            <g
               id="g3443">
              <path
                 id="path3445"
                 style="fill:#ffffff;fill-rule:nonzero"
                 d="m 180.73,-433.5 c -4.994,-0.73732 -10.23,-2.2123 -14.795,-3.7609 -4.5645,-1.5487 -7.8136,-3.3879 -9.9331,-5.5898 5.4293,3.1165 8.4152,4.2093 10.182,4.8176 4.5085,1.5297 8.7183,2.5942 14.695,3.7112 0.71732,0.13406 0.14124,0.86486 -0.14944,0.82189 z"
                 inkscape:connector-curvature="0" />
            </g>
            <g
               id="g3447">
              <path
                 id="path3449"
                 style="fill:#ffffff;fill-rule:nonzero"
                 d="m 183.27,-437.66 c -10.015,-1.5953 -16.505,-5.9162 -20.63,-10.201 6.3928,4.8165 10.84,7.405 20.804,9.3794 0.63066,0.12497 0.44019,0.91984 -0.17433,0.82197 z"
                 inkscape:connector-curvature="0" />
            </g>
            <g
               id="g3451">
              <path
                 id="path3453"
                 style="fill:#ffffff;fill-rule:nonzero"
                 d="m 188.15,-441.32 c -10.073,-1.5516 -15.882,-7.675 -18.301,-11.717 6.3731,6.3665 11.333,9.8314 18.475,10.895 0.72281,0.10759 0.53837,0.93171 -0.17432,0.82189 z"
                 inkscape:connector-curvature="0" />
            </g>
            <g
               id="g3455">
              <path
                 id="path3457"
                 style="fill:#ffffff;fill-rule:nonzero"
                 d="m 191.19,-444.51 c -1.571,-0.19615 -3.7088,-1.3087 -5.7286,-2.5903 -2.0198,-1.2816 -3.5438,-2.841 -4.4526,-4.8501 2.433,2.511 3.407,3.1904 4.9009,4.1527 1.9392,1.2305 3.8934,2.0055 5.4795,2.4658 0.74354,0.21577 0.18164,0.86949 -0.19927,0.8219 z"
                 inkscape:connector-curvature="0" />
            </g>
            <g
               id="g3459">
              <path
                 id="path3461"
                 style="fill:#ffffff;fill-rule:nonzero;stroke:#ffffff;stroke-width:0.83587998;stroke-linecap:butt;stroke-linejoin:miter;stroke-miterlimit:4;stroke-dasharray:none"
                 stroke-miterlimit="4"
                 d="m 268.45,-388.43 c 0,-1.9546 -1.5845,-3.5391 -3.5391,-3.5391 -1.9545,0 -3.539,1.5845 -3.539,3.5391 0,1.9545 1.5845,3.5391 3.539,3.5391 1.9546,0 3.5391,-1.5845 3.5391,-3.5391 z"
                 inkscape:connector-curvature="0" />
            </g>
            <g
               id="g3463">
              <path
                 id="path3465"
                 style="fill:#37c871;fill-rule:nonzero;stroke:#ffffff;stroke-width:0.83587998;stroke-linecap:butt;stroke-linejoin:miter;stroke-miterlimit:4;stroke-dasharray:none"
                 stroke-miterlimit="4"
                 d="m 268.45,-388.43 c 0,-1.9546 -1.5845,-3.5391 -3.5391,-3.5391 -1.9545,0 -3.539,1.5845 -3.539,3.5391 0,1.9545 1.5845,3.5391 3.539,3.5391 1.9546,0 3.5391,-1.5845 3.5391,-3.5391 z"
                 inkscape:connector-curvature="0" />
            </g>
          </g>
        </g>
      </g>
    </g>
  </g>
</svg>
